<svg width="18" height="21" viewBox="0 0 18 21" fill="none" xmlns="http://www.w3.org/2000/svg">
<path d="M16.4834 8.99619L2.97594 0.734001C2.69267 0.561312 2.36865 0.466874 2.03696 0.460326C1.70526 0.453778 1.37777 0.535355 1.08791 0.69673C0.798041 0.858105 0.556183 1.0935 0.387018 1.37889C0.217852 1.66428 0.127437 1.98944 0.125 2.32119V18.8456C0.127437 19.1773 0.217852 19.5025 0.387018 19.7879C0.556183 20.0733 0.798041 20.3086 1.08791 20.47C1.37777 20.6314 1.70526 20.713 2.03696 20.7064C2.36865 20.6999 2.69267 20.6054 2.97594 20.4328L16.4834 12.1706C16.7558 12.0048 16.9809 11.7717 17.1371 11.4937C17.2934 11.2157 17.3754 10.9022 17.3754 10.5834C17.3754 10.2645 17.2934 9.95102 17.1371 9.67305C16.9809 9.39508 16.7558 9.16198 16.4834 8.99619ZM2.375 18.1631V3.00369L14.765 10.5834L2.375 18.1631Z" fill="#0B0A0A"/>
</svg>
